<svg width="467" height="126" viewBox="0 0 467 126" fill="none" xmlns="http://www.w3.org/2000/svg">
<path d="M23.748 106V18.5H97.123V38.875H47.498V85.625H98.9981V106H23.748ZM36.248 71.25V52H92.1231V71.25H36.248Z" fill="white"/>
<path d="M142.496 99.28C140.909 99.28 139.453 99.028 138.128 98.524C136.803 98.0013 135.655 97.3013 134.684 96.424C133.713 95.528 132.967 94.4733 132.444 93.26C131.921 92.028 131.66 90.7027 131.66 89.284C131.66 87.8467 131.921 86.5213 132.444 85.308C132.967 84.0947 133.713 83.04 134.684 82.144C135.655 81.2293 136.803 80.52 138.128 80.016C139.453 79.4933 140.909 79.232 142.496 79.232C144.101 79.232 145.567 79.484 146.892 79.988C148.217 80.4733 149.365 81.1733 150.336 82.088C151.307 83.0027 152.053 84.076 152.576 85.308C153.117 86.5213 153.388 87.8467 153.388 89.284C153.388 90.7213 153.117 92.056 152.576 93.288C152.053 94.5013 151.307 95.556 150.336 96.452C149.365 97.348 148.217 98.048 146.892 98.552C145.567 99.0373 144.101 99.28 142.496 99.28ZM142.524 97.628C143.849 97.628 145.072 97.4227 146.192 97.012C147.312 96.5827 148.273 95.9947 149.076 95.248C149.879 94.4827 150.504 93.596 150.952 92.588C151.4 91.58 151.624 90.4787 151.624 89.284C151.624 88.0893 151.4 86.9787 150.952 85.952C150.504 84.9253 149.879 84.0387 149.076 83.292C148.273 82.5453 147.303 81.9573 146.164 81.528C145.044 81.0987 143.831 80.884 142.524 80.884C141.18 80.884 139.948 81.0987 138.828 81.528C137.708 81.9573 136.737 82.5453 135.916 83.292C135.113 84.02 134.488 84.8973 134.04 85.924C133.611 86.9507 133.396 88.0707 133.396 89.284C133.396 90.4787 133.611 91.5893 134.04 92.616C134.488 93.624 135.113 94.5013 135.916 95.248C136.737 95.9947 137.708 96.5827 138.828 97.012C139.948 97.4227 141.18 97.628 142.524 97.628ZM156.24 99V79.4H165.62C166.87 79.4 167.962 79.6053 168.896 80.016C169.829 80.408 170.548 80.968 171.052 81.696C171.556 82.424 171.808 83.292 171.808 84.3C171.808 85.42 171.472 86.3627 170.8 87.128C170.146 87.8933 169.213 88.444 168 88.78L168.028 88.276C168.942 88.444 169.754 88.752 170.464 89.2C171.192 89.6293 171.77 90.1893 172.2 90.88C172.629 91.552 172.844 92.3453 172.844 93.26C172.844 94.1933 172.657 95.0147 172.284 95.724C171.929 96.4333 171.444 97.0307 170.828 97.516C170.23 98.0013 169.53 98.3747 168.728 98.636C167.925 98.8787 167.076 99 166.18 99H156.24ZM157.92 97.348H166.012C166.945 97.3667 167.794 97.2267 168.56 96.928C169.325 96.6107 169.932 96.1533 170.38 95.556C170.828 94.9587 171.052 94.24 171.052 93.4C171.052 92.5787 170.818 91.888 170.352 91.328C169.885 90.7493 169.25 90.3107 168.448 90.012C167.664 89.7133 166.805 89.564 165.872 89.564H157.92V97.348ZM157.92 87.94H165.816C166.674 87.94 167.421 87.8 168.056 87.52C168.69 87.2213 169.176 86.82 169.512 86.316C169.866 85.7933 170.044 85.1867 170.044 84.496C170.044 83.4133 169.642 82.5733 168.84 81.976C168.056 81.36 166.982 81.052 165.62 81.052H157.92V87.94ZM175.723 99V79.4H184.739C185.896 79.4 186.932 79.6613 187.847 80.184C188.761 80.7067 189.499 81.4067 190.059 82.284C190.619 83.1613 190.899 84.1507 190.899 85.252C190.899 86.428 190.619 87.4547 190.059 88.332C189.517 89.2093 188.771 89.9 187.819 90.404C186.867 90.8893 185.793 91.132 184.599 91.132H177.403V99H175.723ZM189.863 99L184.011 90.516L185.551 89.816L191.851 99H189.863ZM177.403 89.48H184.543C185.439 89.48 186.223 89.3027 186.895 88.948C187.585 88.5933 188.127 88.0987 188.519 87.464C188.911 86.8293 189.107 86.1107 189.107 85.308C189.107 84.4867 188.901 83.7587 188.491 83.124C188.08 82.4893 187.52 81.9853 186.811 81.612C186.101 81.2387 185.289 81.052 184.375 81.052H177.403V89.48ZM192.031 99L200.627 79.4H202.811L211.351 99H209.503L203.287 84.776C203.025 84.1787 202.811 83.684 202.643 83.292C202.493 82.9 202.353 82.5547 202.223 82.256C202.092 81.9573 201.961 81.64 201.831 81.304C201.719 80.9493 201.579 80.52 201.411 80.016H201.887C201.7 80.5947 201.532 81.0707 201.383 81.444C201.252 81.7987 201.112 82.1347 200.963 82.452C200.832 82.7693 200.683 83.1147 200.515 83.488C200.365 83.8613 200.169 84.3467 199.927 84.944L193.739 99H192.031ZM195.503 93.4L196.175 91.776H207.207L207.683 93.4H195.503ZM220.068 99.28C218.948 99.28 217.884 99.1493 216.876 98.888C215.868 98.608 214.935 98.1973 214.076 97.656C213.236 97.096 212.48 96.396 211.808 95.556L212.872 94.24C213.88 95.4533 214.991 96.3307 216.204 96.872C217.417 97.4133 218.715 97.684 220.096 97.684C221.291 97.684 222.355 97.516 223.288 97.18C224.221 96.844 224.968 96.368 225.528 95.752C226.088 95.136 226.359 94.436 226.34 93.652C226.34 93.0733 226.2 92.5973 225.92 92.224C225.659 91.8507 225.304 91.5427 224.856 91.3C224.427 91.0387 223.932 90.824 223.372 90.656C222.812 90.488 222.233 90.348 221.636 90.236C221.057 90.1053 220.497 89.984 219.956 89.872C218.948 89.6667 218.005 89.452 217.128 89.228C216.269 88.9853 215.504 88.6773 214.832 88.304C214.16 87.912 213.647 87.4267 213.292 86.848C212.937 86.2693 212.76 85.532 212.76 84.636C212.76 83.796 212.937 83.04 213.292 82.368C213.647 81.696 214.16 81.1267 214.832 80.66C215.504 80.1933 216.279 79.8387 217.156 79.596C218.052 79.3533 219.013 79.232 220.04 79.232C221.197 79.232 222.224 79.372 223.12 79.652C224.016 79.932 224.819 80.3333 225.528 80.856C226.237 81.3787 226.872 82.004 227.432 82.732L226.284 83.964C225.78 83.3107 225.211 82.7507 224.576 82.284C223.941 81.8173 223.241 81.4627 222.476 81.22C221.729 80.9773 220.917 80.856 220.04 80.856C218.976 80.856 218.033 81.0053 217.212 81.304C216.391 81.6027 215.728 82.032 215.224 82.592C214.72 83.1333 214.468 83.7773 214.468 84.524C214.468 85.14 214.627 85.6533 214.944 86.064C215.261 86.4747 215.7 86.82 216.26 87.1C216.82 87.3613 217.473 87.5853 218.22 87.772C218.985 87.94 219.844 88.1173 220.796 88.304C221.711 88.4347 222.597 88.6213 223.456 88.864C224.315 89.088 225.099 89.3867 225.808 89.76C226.517 90.1333 227.068 90.628 227.46 91.244C227.871 91.8413 228.076 92.616 228.076 93.568C228.076 94.6693 227.74 95.6587 227.068 96.536C226.415 97.3947 225.491 98.0667 224.296 98.552C223.101 99.0373 221.692 99.28 220.068 99.28ZM237.932 99V79.4H251.68V81.052H239.612V97.348H251.568V99H237.932ZM238.8 89.732V88.08H250.084V89.732H238.8ZM262.214 99V79.4H271.23C272.387 79.4 273.423 79.6613 274.338 80.184C275.253 80.7067 275.99 81.4067 276.55 82.284C277.11 83.1613 277.39 84.1507 277.39 85.252C277.39 86.428 277.11 87.4547 276.55 88.332C276.009 89.2093 275.262 89.9 274.31 90.404C273.358 90.8893 272.285 91.132 271.09 91.132H263.894V99H262.214ZM276.354 99L270.502 90.516L272.042 89.816L278.342 99H276.354ZM263.894 89.48H271.034C271.93 89.48 272.714 89.3027 273.386 88.948C274.077 88.5933 274.618 88.0987 275.01 87.464C275.402 86.8293 275.598 86.1107 275.598 85.308C275.598 84.4867 275.393 83.7587 274.982 83.124C274.571 82.4893 274.011 81.9853 273.302 81.612C272.593 81.2387 271.781 81.052 270.866 81.052H263.894V89.48ZM280.986 99V79.4H294.734V81.052H282.666V97.348H294.622V99H280.986ZM281.854 89.732V88.08H293.138V89.732H281.854ZM298.282 99V79.4H299.962V99H298.282ZM299.15 90.152V88.528H310.882V90.152H299.15ZM299.234 81.052V79.4H312.254V81.052H299.234ZM324.27 99.28C322.683 99.28 321.227 99.028 319.902 98.524C318.576 98.0013 317.428 97.3013 316.458 96.424C315.487 95.528 314.74 94.4733 314.218 93.26C313.695 92.028 313.434 90.7027 313.434 89.284C313.434 87.8467 313.695 86.5213 314.218 85.308C314.74 84.0947 315.487 83.04 316.458 82.144C317.428 81.2293 318.576 80.52 319.902 80.016C321.227 79.4933 322.683 79.232 324.27 79.232C325.875 79.232 327.34 79.484 328.666 79.988C329.991 80.4733 331.139 81.1733 332.11 82.088C333.08 83.0027 333.827 84.076 334.35 85.308C334.891 86.5213 335.162 87.8467 335.162 89.284C335.162 90.7213 334.891 92.056 334.35 93.288C333.827 94.5013 333.08 95.556 332.11 96.452C331.139 97.348 329.991 98.048 328.666 98.552C327.34 99.0373 325.875 99.28 324.27 99.28ZM324.298 97.628C325.623 97.628 326.846 97.4227 327.966 97.012C329.086 96.5827 330.047 95.9947 330.85 95.248C331.652 94.4827 332.278 93.596 332.726 92.588C333.174 91.58 333.398 90.4787 333.398 89.284C333.398 88.0893 333.174 86.9787 332.726 85.952C332.278 84.9253 331.652 84.0387 330.85 83.292C330.047 82.5453 329.076 81.9573 327.938 81.528C326.818 81.0987 325.604 80.884 324.298 80.884C322.954 80.884 321.722 81.0987 320.602 81.528C319.482 81.9573 318.511 82.5453 317.69 83.292C316.887 84.02 316.262 84.8973 315.814 85.924C315.384 86.9507 315.17 88.0707 315.17 89.284C315.17 90.4787 315.384 91.5893 315.814 92.616C316.262 93.624 316.887 94.5013 317.69 95.248C318.511 95.9947 319.482 96.5827 320.602 97.012C321.722 97.4227 322.954 97.628 324.298 97.628ZM338.013 99V79.4H347.029C348.187 79.4 349.223 79.6613 350.137 80.184C351.052 80.7067 351.789 81.4067 352.349 82.284C352.909 83.1613 353.189 84.1507 353.189 85.252C353.189 86.428 352.909 87.4547 352.349 88.332C351.808 89.2093 351.061 89.9 350.109 90.404C349.157 90.8893 348.084 91.132 346.889 91.132H339.693V99H338.013ZM352.153 99L346.301 90.516L347.841 89.816L354.141 99H352.153ZM339.693 89.48H346.833C347.729 89.48 348.513 89.3027 349.185 88.948C349.876 88.5933 350.417 88.0987 350.809 87.464C351.201 86.8293 351.397 86.1107 351.397 85.308C351.397 84.4867 351.192 83.7587 350.781 83.124C350.371 82.4893 349.811 81.9853 349.101 81.612C348.392 81.2387 347.58 81.052 346.665 81.052H339.693V89.48ZM356.785 99V79.4H358.437L367.257 91.86L366.529 91.832L375.489 79.4H377.029V99H375.349V89.396C375.349 87.7347 375.359 86.232 375.377 84.888C375.415 83.544 375.508 82.2 375.657 80.856L376.021 81.472L367.481 93.176H366.193L357.821 81.5L358.157 80.856C358.288 82.144 358.372 83.4507 358.409 84.776C358.447 86.1013 358.465 87.6413 358.465 89.396V99H356.785ZM379.082 99L387.678 79.4H389.862L398.402 99H396.554L390.338 84.776C390.076 84.1787 389.862 83.684 389.694 83.292C389.544 82.9 389.404 82.5547 389.274 82.256C389.143 81.9573 389.012 81.64 388.882 81.304C388.77 80.9493 388.63 80.52 388.462 80.016H388.938C388.751 80.5947 388.583 81.0707 388.434 81.444C388.303 81.7987 388.163 82.1347 388.014 82.452C387.883 82.7693 387.734 83.1147 387.566 83.488C387.416 83.8613 387.22 84.3467 386.978 84.944L380.79 99H379.082ZM382.554 93.4L383.226 91.776H394.258L394.734 93.4H382.554ZM407.119 99.28C405.999 99.28 404.935 99.1493 403.927 98.888C402.919 98.608 401.986 98.1973 401.127 97.656C400.287 97.096 399.531 96.396 398.859 95.556L399.923 94.24C400.931 95.4533 402.042 96.3307 403.255 96.872C404.468 97.4133 405.766 97.684 407.147 97.684C408.342 97.684 409.406 97.516 410.339 97.18C411.272 96.844 412.019 96.368 412.579 95.752C413.139 95.136 413.41 94.436 413.391 93.652C413.391 93.0733 413.251 92.5973 412.971 92.224C412.71 91.8507 412.355 91.5427 411.907 91.3C411.478 91.0387 410.983 90.824 410.423 90.656C409.863 90.488 409.284 90.348 408.687 90.236C408.108 90.1053 407.548 89.984 407.007 89.872C405.999 89.6667 405.056 89.452 404.179 89.228C403.32 88.9853 402.555 88.6773 401.883 88.304C401.211 87.912 400.698 87.4267 400.343 86.848C399.988 86.2693 399.811 85.532 399.811 84.636C399.811 83.796 399.988 83.04 400.343 82.368C400.698 81.696 401.211 81.1267 401.883 80.66C402.555 80.1933 403.33 79.8387 404.207 79.596C405.103 79.3533 406.064 79.232 407.091 79.232C408.248 79.232 409.275 79.372 410.171 79.652C411.067 79.932 411.87 80.3333 412.579 80.856C413.288 81.3787 413.923 82.004 414.483 82.732L413.335 83.964C412.831 83.3107 412.262 82.7507 411.627 82.284C410.992 81.8173 410.292 81.4627 409.527 81.22C408.78 80.9773 407.968 80.856 407.091 80.856C406.027 80.856 405.084 81.0053 404.263 81.304C403.442 81.6027 402.779 82.032 402.275 82.592C401.771 83.1333 401.519 83.7773 401.519 84.524C401.519 85.14 401.678 85.6533 401.995 86.064C402.312 86.4747 402.751 86.82 403.311 87.1C403.871 87.3613 404.524 87.5853 405.271 87.772C406.036 87.94 406.895 88.1173 407.847 88.304C408.762 88.4347 409.648 88.6213 410.507 88.864C411.366 89.088 412.15 89.3867 412.859 89.76C413.568 90.1333 414.119 90.628 414.511 91.244C414.922 91.8413 415.127 92.616 415.127 93.568C415.127 94.6693 414.791 95.6587 414.119 96.536C413.466 97.3947 412.542 98.0667 411.347 98.552C410.152 99.0373 408.743 99.28 407.119 99.28Z" fill="white"/>
<path d="M134.6 63V35H156.32V40H140.08V58H156.52V63H134.6ZM137.44 51.12V46.28H154.32V51.12H137.44ZM170.514 63.4C168.301 63.4 166.354 62.9333 164.674 62C162.994 61.0667 161.687 59.7733 160.754 58.12C159.847 56.4667 159.394 54.5733 159.394 52.44C159.394 50.28 159.874 48.3867 160.834 46.76C161.821 45.1067 163.154 43.8133 164.834 42.88C166.541 41.92 168.501 41.44 170.714 41.44C171.994 41.44 173.194 41.6 174.314 41.92C175.434 42.24 176.421 42.68 177.274 43.24C178.154 43.8 178.847 44.4133 179.354 45.08C179.861 45.72 180.141 46.3733 180.194 47.04L178.794 47.28V33.4H184.114V63H179.074L178.874 57.64L179.914 57.92C179.887 58.56 179.607 59.2 179.074 59.84C178.541 60.48 177.847 61.08 176.994 61.64C176.141 62.1733 175.141 62.6 173.994 62.92C172.874 63.24 171.714 63.4 170.514 63.4ZM171.834 58.84C173.274 58.84 174.527 58.56 175.594 58C176.687 57.44 177.527 56.68 178.114 55.72C178.701 54.76 178.994 53.6667 178.994 52.44C178.994 51.2133 178.701 50.12 178.114 49.16C177.527 48.2 176.687 47.4533 175.594 46.92C174.527 46.36 173.274 46.08 171.834 46.08C170.447 46.08 169.207 46.36 168.114 46.92C167.047 47.4533 166.207 48.2 165.594 49.16C165.007 50.12 164.714 51.2133 164.714 52.44C164.714 53.6667 165.007 54.76 165.594 55.72C166.207 56.68 167.047 57.44 168.114 58C169.207 58.56 170.447 58.84 171.834 58.84ZM198.518 63.4C196.198 63.4 194.105 63.08 192.238 62.44C190.371 61.8 188.851 60.8133 187.678 59.48L191.038 56.52C191.971 57.4267 193.078 58.12 194.358 58.6C195.665 59.08 197.091 59.32 198.638 59.32C199.145 59.32 199.665 59.2933 200.198 59.24C200.731 59.16 201.211 59.0267 201.638 58.84C202.091 58.6533 202.438 58.4267 202.678 58.16C202.945 57.8667 203.078 57.52 203.078 57.12C203.078 56.48 202.625 55.9733 201.718 55.6C201.238 55.44 200.611 55.28 199.838 55.12C199.091 54.9333 198.265 54.7467 197.358 54.56C195.758 54.24 194.358 53.8933 193.158 53.52C191.985 53.1467 191.011 52.6533 190.238 52.04C189.625 51.5333 189.145 50.9333 188.798 50.24C188.451 49.5467 188.278 48.7333 188.278 47.8C188.278 46.8133 188.531 45.9333 189.038 45.16C189.571 44.3867 190.278 43.72 191.158 43.16C192.065 42.6 193.105 42.1733 194.278 41.88C195.451 41.5867 196.705 41.44 198.038 41.44C199.291 41.44 200.531 41.56 201.758 41.8C202.985 42.04 204.158 42.4133 205.278 42.92C206.398 43.4 207.358 44 208.158 44.72L205.398 48.04C204.785 47.5867 204.051 47.16 203.198 46.76C202.371 46.36 201.505 46.04 200.598 45.8C199.691 45.56 198.798 45.44 197.918 45.44C197.358 45.44 196.811 45.48 196.278 45.56C195.771 45.6133 195.305 45.7333 194.878 45.92C194.451 46.08 194.105 46.2933 193.838 46.56C193.598 46.8267 193.478 47.1467 193.478 47.52C193.478 47.7867 193.558 48.04 193.718 48.28C193.878 48.52 194.105 48.7333 194.398 48.92C194.825 49.1867 195.451 49.44 196.278 49.68C197.131 49.8933 198.118 50.1067 199.238 50.32C200.865 50.6133 202.278 50.9733 203.478 51.4C204.705 51.8 205.691 52.2933 206.438 52.88C207.078 53.3333 207.545 53.88 207.838 54.52C208.131 55.1333 208.278 55.8267 208.278 56.6C208.278 57.9867 207.851 59.2 206.998 60.24C206.171 61.2533 205.011 62.04 203.518 62.6C202.051 63.1333 200.385 63.4 198.518 63.4ZM223.071 63.4C220.591 63.4 218.378 62.9333 216.431 62C214.485 61.0667 212.951 59.7733 211.831 58.12C210.738 56.44 210.191 54.5467 210.191 52.44C210.191 50.28 210.738 48.3733 211.831 46.72C212.951 45.0667 214.485 43.7733 216.431 42.84C218.378 41.9067 220.591 41.44 223.071 41.44C225.605 41.44 227.831 41.9067 229.751 42.84C231.671 43.7733 233.178 45.0667 234.271 46.72C235.391 48.3733 235.951 50.28 235.951 52.44C235.951 54.5467 235.391 56.44 234.271 58.12C233.178 59.7733 231.671 61.0667 229.751 62C227.831 62.9333 225.605 63.4 223.071 63.4ZM223.111 58.72C224.525 58.72 225.791 58.4533 226.911 57.92C228.058 57.3867 228.965 56.6533 229.631 55.72C230.298 54.76 230.605 53.6667 230.551 52.44C230.605 51.16 230.298 50.0533 229.631 49.12C228.965 48.1867 228.058 47.4533 226.911 46.92C225.791 46.36 224.525 46.08 223.111 46.08C221.698 46.08 220.418 46.36 219.271 46.92C218.125 47.4533 217.218 48.2 216.551 49.16C215.885 50.0933 215.565 51.1867 215.591 52.44C215.565 53.6667 215.885 54.76 216.551 55.72C217.218 56.6533 218.125 57.3867 219.271 57.92C220.418 58.4533 221.698 58.72 223.111 58.72ZM240.762 63V41.88H245.922L246.042 47.08L244.642 47.44C245.042 46.4 245.669 45.4267 246.522 44.52C247.402 43.6133 248.469 42.88 249.722 42.32C250.975 41.7333 252.349 41.44 253.842 41.44C255.762 41.44 257.362 41.8133 258.642 42.56C259.949 43.3067 260.935 44.3467 261.602 45.68C262.269 47.0133 262.602 48.5733 262.602 50.36V63H257.282V51.12C257.282 50.0533 257.069 49.1467 256.642 48.4C256.215 47.6267 255.602 47.04 254.802 46.64C254.029 46.24 253.122 46.0533 252.082 46.08C251.202 46.08 250.389 46.24 249.642 46.56C248.895 46.8533 248.255 47.2533 247.722 47.76C247.189 48.2667 246.775 48.8267 246.482 49.44C246.215 50.0267 246.082 50.6267 246.082 51.24V63H243.442C242.722 63 242.135 63 241.682 63C241.229 63 240.922 63 240.762 63ZM281.112 63V35H295.632C297.339 35 298.886 35.3867 300.272 36.16C301.659 36.9333 302.766 38 303.592 39.36C304.419 40.6933 304.832 42.2 304.832 43.88C304.832 45.64 304.406 47.2267 303.552 48.64C302.699 50.0267 301.539 51.1467 300.072 52C298.606 52.8267 296.979 53.24 295.192 53.24H286.712V63H281.112ZM286.672 48.12H294.472C295.299 48.12 296.046 47.9333 296.712 47.56C297.406 47.1867 297.952 46.6933 298.352 46.08C298.779 45.44 298.992 44.7333 298.992 43.96C298.992 43.2133 298.779 42.56 298.352 42C297.952 41.4133 297.406 40.96 296.712 40.64C296.046 40.2933 295.299 40.12 294.472 40.12H286.672V48.12ZM319.887 63.4C317.274 63.4 314.967 62.9333 312.967 62C310.994 61.0667 309.46 59.7867 308.367 58.16C307.274 56.5333 306.727 54.68 306.727 52.6C306.727 50.8933 307.047 49.36 307.687 48C308.327 46.6133 309.22 45.44 310.367 44.48C311.54 43.4933 312.887 42.7333 314.407 42.2C315.927 41.6667 317.554 41.4 319.287 41.4C320.914 41.4 322.434 41.6667 323.847 42.2C325.287 42.7067 326.527 43.4267 327.567 44.36C328.634 45.2933 329.447 46.4 330.007 47.68C330.594 48.96 330.874 50.36 330.847 51.88L330.807 53.8H310.647L309.727 50.28H326.367L325.727 50.92V50C325.647 49.2 325.3 48.5067 324.687 47.92C324.074 47.3067 323.3 46.8267 322.367 46.48C321.434 46.1333 320.42 45.96 319.327 45.96C317.86 45.96 316.554 46.1867 315.407 46.64C314.26 47.0667 313.367 47.7467 312.727 48.68C312.114 49.5867 311.807 50.76 311.807 52.2C311.807 53.5067 312.167 54.6533 312.887 55.64C313.607 56.6267 314.634 57.4 315.967 57.96C317.3 58.4933 318.847 58.76 320.607 58.76C322.234 58.76 323.594 58.56 324.687 58.16C325.78 57.7333 326.727 57.2267 327.527 56.64L329.927 60.28C329.1 60.8933 328.14 61.44 327.047 61.92C325.98 62.3733 324.82 62.7333 323.567 63C322.34 63.2667 321.114 63.4 319.887 63.4ZM344.219 63.4C342.005 63.4 340.059 62.9333 338.379 62C336.699 61.0667 335.392 59.7733 334.459 58.12C333.552 56.4667 333.099 54.5733 333.099 52.44C333.099 50.28 333.579 48.3867 334.539 46.76C335.525 45.1067 336.859 43.8133 338.539 42.88C340.245 41.92 342.205 41.44 344.419 41.44C345.699 41.44 346.899 41.6 348.019 41.92C349.139 42.24 350.125 42.68 350.979 43.24C351.859 43.8 352.552 44.4133 353.059 45.08C353.565 45.72 353.845 46.3733 353.899 47.04L352.499 47.28V33.4H357.819V63H352.779L352.579 57.64L353.619 57.92C353.592 58.56 353.312 59.2 352.779 59.84C352.245 60.48 351.552 61.08 350.699 61.64C349.845 62.1733 348.845 62.6 347.699 62.92C346.579 63.24 345.419 63.4 344.219 63.4ZM345.539 58.84C346.979 58.84 348.232 58.56 349.299 58C350.392 57.44 351.232 56.68 351.819 55.72C352.405 54.76 352.699 53.6667 352.699 52.44C352.699 51.2133 352.405 50.12 351.819 49.16C351.232 48.2 350.392 47.4533 349.299 46.92C348.232 46.36 346.979 46.08 345.539 46.08C344.152 46.08 342.912 46.36 341.819 46.92C340.752 47.4533 339.912 48.2 339.299 49.16C338.712 50.12 338.419 51.2133 338.419 52.44C338.419 53.6667 338.712 54.76 339.299 55.72C339.912 56.68 340.752 57.44 341.819 58C342.912 58.56 344.152 58.84 345.539 58.84ZM364.223 63V41.88H369.383L369.543 49.24L368.303 48.52C368.649 47.2133 369.263 46.0267 370.143 44.96C371.023 43.8933 372.049 43.04 373.223 42.4C374.396 41.76 375.623 41.44 376.903 41.44C377.676 41.44 378.409 41.52 379.103 41.68C379.823 41.84 380.409 42.04 380.863 42.28L379.423 47.96C378.969 47.6933 378.383 47.48 377.663 47.32C376.969 47.1333 376.276 47.04 375.583 47.04C374.676 47.04 373.849 47.2 373.103 47.52C372.383 47.8133 371.756 48.2267 371.223 48.76C370.689 49.2933 370.276 49.88 369.983 50.52C369.716 51.16 369.583 51.8533 369.583 52.6V63H364.223ZM394.471 63.4C391.858 63.4 389.551 62.9333 387.551 62C385.578 61.0667 384.045 59.7867 382.951 58.16C381.858 56.5333 381.311 54.68 381.311 52.6C381.311 50.8933 381.631 49.36 382.271 48C382.911 46.6133 383.805 45.44 384.951 44.48C386.125 43.4933 387.471 42.7333 388.991 42.2C390.511 41.6667 392.138 41.4 393.871 41.4C395.498 41.4 397.018 41.6667 398.431 42.2C399.871 42.7067 401.111 43.4267 402.151 44.36C403.218 45.2933 404.031 46.4 404.591 47.68C405.178 48.96 405.458 50.36 405.431 51.88L405.391 53.8H385.231L384.311 50.28H400.951L400.311 50.92V50C400.231 49.2 399.885 48.5067 399.271 47.92C398.658 47.3067 397.885 46.8267 396.951 46.48C396.018 46.1333 395.005 45.96 393.911 45.96C392.445 45.96 391.138 46.1867 389.991 46.64C388.845 47.0667 387.951 47.7467 387.311 48.68C386.698 49.5867 386.391 50.76 386.391 52.2C386.391 53.5067 386.751 54.6533 387.471 55.64C388.191 56.6267 389.218 57.4 390.551 57.96C391.885 58.4933 393.431 58.76 395.191 58.76C396.818 58.76 398.178 58.56 399.271 58.16C400.365 57.7333 401.311 57.2267 402.111 56.64L404.511 60.28C403.685 60.8933 402.725 61.44 401.631 61.92C400.565 62.3733 399.405 62.7333 398.151 63C396.925 63.2667 395.698 63.4 394.471 63.4ZM410.763 63V41.88H416.083V63H410.763ZM413.403 37.24C412.336 37.24 411.51 36.9867 410.923 36.48C410.363 35.9467 410.083 35.2 410.083 34.24C410.083 33.3867 410.376 32.68 410.963 32.12C411.55 31.56 412.363 31.28 413.403 31.28C414.443 31.28 415.243 31.5467 415.803 32.08C416.39 32.5867 416.683 33.3067 416.683 34.24C416.683 35.12 416.39 35.84 415.803 36.4C415.216 36.96 414.416 37.24 413.403 37.24ZM423.612 63V41.88H428.772L428.932 49.24L427.692 48.52C428.039 47.2133 428.652 46.0267 429.532 44.96C430.412 43.8933 431.439 43.04 432.612 42.4C433.785 41.76 435.012 41.44 436.292 41.44C437.065 41.44 437.799 41.52 438.492 41.68C439.212 41.84 439.799 42.04 440.252 42.28L438.812 47.96C438.359 47.6933 437.772 47.48 437.052 47.32C436.359 47.1333 435.665 47.04 434.972 47.04C434.065 47.04 433.239 47.2 432.492 47.52C431.772 47.8133 431.145 48.2267 430.612 48.76C430.079 49.2933 429.665 49.88 429.372 50.52C429.105 51.16 428.972 51.8533 428.972 52.6V63H423.612ZM453.86 63.4C451.38 63.4 449.167 62.9333 447.22 62C445.274 61.0667 443.74 59.7733 442.62 58.12C441.527 56.44 440.98 54.5467 440.98 52.44C440.98 50.28 441.527 48.3733 442.62 46.72C443.74 45.0667 445.274 43.7733 447.22 42.84C449.167 41.9067 451.38 41.44 453.86 41.44C456.394 41.44 458.62 41.9067 460.54 42.84C462.46 43.7733 463.967 45.0667 465.06 46.72C466.18 48.3733 466.74 50.28 466.74 52.44C466.74 54.5467 466.18 56.44 465.06 58.12C463.967 59.7733 462.46 61.0667 460.54 62C458.62 62.9333 456.394 63.4 453.86 63.4ZM453.9 58.72C455.314 58.72 456.58 58.4533 457.7 57.92C458.847 57.3867 459.754 56.6533 460.42 55.72C461.087 54.76 461.394 53.6667 461.34 52.44C461.394 51.16 461.087 50.0533 460.42 49.12C459.754 48.1867 458.847 47.4533 457.7 46.92C456.58 46.36 455.314 46.08 453.9 46.08C452.487 46.08 451.207 46.36 450.06 46.92C448.914 47.4533 448.007 48.2 447.34 49.16C446.674 50.0933 446.354 51.1867 446.38 52.44C446.354 53.6667 446.674 54.76 447.34 55.72C448.007 56.6533 448.914 57.3867 450.06 57.92C451.207 58.4533 452.487 58.72 453.9 58.72Z" fill="white"/>
<path d="M115 3H3V123H115V3Z" stroke="white" stroke-width="5"/>
</svg>
